<svg width="512" height="512" viewBox="0 0 512 512" xmlns="http://www.w3.org/2000/svg"><mask id="satori_om-id"><rect x="0" y="0" width="512" height="512" fill="#fff"/></mask><rect x="0" y="0" width="512" height="512" fill="#050505"/><mask id="satori_om-id-0"><rect x="74" y="-26" width="365" height="494" fill="#fff"/></mask><g  ><path fill="#f4f4f0" d="M298.6 353.4L298.6 353.4Q284.9 353.4 278.1 342.0Q271.2 330.6 277.3 306.7L277.3 306.7L306.6 196.5Q310.7 181.7 307.9 176.0Q305.0 170.3 299.7 170.3L299.7 170.3Q292.1 170.3 282.2 180.7Q272.4 191.2 261.5 209.0Q250.7 226.9 240.4 249.7Q230.2 272.5 221.4 297.2Q212.7 321.9 207 345.8L207 345.8Q205.9 350 201.7 350L201.7 350L186.9 350Q181.5 350 182.7 345.1L182.7 345.1L217.6 196.5Q221.1 181.7 218.6 176.0Q216.1 170.3 210.8 170.3L210.8 170.3Q203.6 170.3 193.7 180.7Q183.8 191.2 173.2 209.0Q162.5 226.9 152.3 249.7Q142.0 272.5 133.3 297.2Q124.5 321.9 119.2 345.8L119.2 345.8Q118.1 350 113.9 350L113.9 350L98.3 350Q93 350 94.1 345.1L94.1 345.1L130.2 193.4Q132.1 185.1 130.8 180.3Q129.5 175.6 123.8 175.6L123.8 175.6Q116.9 175.6 108.8 185.7Q100.6 195.7 90.3 223.8L90.3 223.8Q88.8 228.8 85.0 228.8L85.0 228.8Q79.3 228.8 82.0 221.9L82.0 221.9Q90.3 195.7 99.7 180.9Q109.0 166.1 118.5 160Q128.0 153.9 135.9 153.9L135.9 153.9Q148.5 153.9 153.8 163.2Q159.1 172.5 154.2 193.8L154.2 193.8L144.7 234.9Q144.3 237.5 145.8 237.9Q147.3 238.3 148.5 236L148.5 236Q170.5 190.4 188.4 172.2Q206.2 153.9 221.1 153.9L221.1 153.9Q235.1 153.9 241.0 165.3Q246.9 176.7 241.6 200.3L241.6 200.3L233.6 234.9Q233.2 237.5 234.7 237.9Q236.3 238.3 237.4 236L237.4 236Q251.8 205.2 264.6 187.2Q277.3 169.1 288.7 161.5Q300.1 153.9 310.0 153.9L310.0 153.9Q324.0 153.9 330.5 165.3Q337.0 176.7 330.5 200.3L330.5 200.3L301.6 310.5Q299.0 321.1 301.2 326.4Q303.5 331.8 309.6 331.8L309.6 331.8Q317.2 331.8 324.6 321.7Q332.0 311.6 340 283.5L340 283.5Q341.1 279.3 344.9 279.3L344.9 279.3Q348.0 279.3 348.6 281.6Q349.1 283.9 348.4 286.9L348.4 286.9Q341.1 312.8 332.8 327.4Q324.4 342.0 315.9 347.7Q307.3 353.4 298.6 353.4Z "/></g><mask id="satori_om-id-0-1"><rect x="358" y="-26" width="81" height="494" fill="#fff"/></mask><g  ><path fill="#00c805" d="M398.7 353.4L398.7 353.4Q390.3 353.4 384.4 347.9Q378.5 342.4 378.5 333.3L378.5 333.3Q378.5 324.5 384.4 319.0Q390.3 313.5 398.7 313.5L398.7 313.5Q406.3 313.5 412.3 319.0Q418.4 324.5 418.4 333.3L418.4 333.3Q418.4 342.4 412.3 347.9Q406.3 353.4 398.7 353.4Z "/></g></svg>